<svg width="54" height="54" viewBox="0 0 54 54" fill="none" xmlns="http://www.w3.org/2000/svg">
<rect x="0.5" y="0.5" width="52.3322" height="52.3322" rx="9.5" fill="#4351CC" stroke="#3641A3"/>
<path d="M12.0947 24V14.228H18.7447V16.118H14.2227V18.12H18.1007V19.996H14.2227V22.11H18.7447V24H12.0947ZM20.5986 14.228H24.2806C24.9246 14.228 25.5126 14.3307 26.0446 14.536C26.5766 14.7413 27.0293 15.0493 27.4026 15.46C27.7759 15.8613 28.0653 16.37 28.2706 16.986C28.4759 17.5927 28.5786 18.302 28.5786 19.114C28.5786 19.926 28.4759 20.64 28.2706 21.256C28.0653 21.8627 27.7759 22.3713 27.4026 22.782C27.0293 23.1833 26.5766 23.4867 26.0446 23.692C25.5126 23.8973 24.9246 24 24.2806 24H20.5986V14.228ZM24.2806 22.11C24.9153 22.11 25.4146 21.9327 25.7786 21.578C26.1426 21.2233 26.3246 20.654 26.3246 19.87V18.358C26.3246 17.574 26.1426 17.0047 25.7786 16.65C25.4146 16.2953 24.9153 16.118 24.2806 16.118H22.7266V22.11H24.2806ZM29.9823 24V22.306H31.2423V15.922H29.9823V14.228H34.6303V15.922H33.3703V22.306H34.6303V24H29.9823ZM40.4226 16.118V24H38.2946V16.118H35.6486V14.228H43.0686V16.118H40.4226Z" fill="#F9D35D"/>
<path d="M9.34904 39.0722V29.3002H13.969C14.4264 29.3002 14.837 29.3795 15.201 29.5382C15.565 29.6875 15.873 29.8975 16.125 30.1682C16.3864 30.4388 16.587 30.7702 16.727 31.1622C16.867 31.5448 16.937 31.9648 16.937 32.4222C16.937 32.8888 16.867 33.3135 16.727 33.6962C16.587 34.0788 16.3864 34.4055 16.125 34.6762C15.873 34.9468 15.565 35.1615 15.201 35.3202C14.837 35.4695 14.4264 35.5442 13.969 35.5442H11.477V39.0722H9.34904ZM11.477 33.6962H13.717C14.0344 33.6962 14.2817 33.6168 14.459 33.4582C14.6457 33.2902 14.739 33.0475 14.739 32.7302V32.1142C14.739 31.7968 14.6457 31.5588 14.459 31.4002C14.2817 31.2322 14.0344 31.1482 13.717 31.1482H11.477V33.6962ZM18.5365 39.0722V29.3002H20.6645V37.1822H24.3885V39.0722H18.5365ZM32.2128 39.0722L31.5128 36.7482H28.2508L27.5508 39.0722H25.3948L28.6148 29.3002H31.2468L34.4248 39.0722H32.2128ZM29.9028 31.2322H29.8328L28.7548 34.9422H30.9948L29.9028 31.2322ZM38.7588 34.4522L37.8208 32.4922H37.7788V39.0722H35.7768V29.3002H38.1008L40.7748 33.9202L41.7128 35.8802H41.7548V29.3002H43.7568V39.0722H41.4328L38.7588 34.4522Z" fill="#F9D35D"/>
<path d="M8.60673 15.118V12.542H6.24073V10.89H8.60673V8.314H10.3987V10.89H12.7647V12.542H10.3987V15.118H8.60673Z" fill="white"/>
<path d="M45.362 43.37V41.53H43.672V40.35H45.362V38.51H46.642V40.35H48.332V41.53H46.642V43.37H45.362Z" fill="white"/>
</svg>
