<svg width="54" height="54" viewBox="0 0 54 54" fill="none" xmlns="http://www.w3.org/2000/svg">
<rect width="53.3322" height="53.3322" rx="10" fill="#FEF6DF"/>
<ellipse cx="39.5" cy="45.5" rx="5.5" ry="4.5" transform="rotate(-25.5744 39.5 45.5)" fill="url(#paint0_linear_2609_11651)"/>
<ellipse cx="26.5566" cy="27.1371" rx="22.0052" ry="20.8629" fill="url(#paint1_linear_2609_11651)"/>
<path d="M9.59883 8.23534C9.73688 7.5992 10.4676 7.28387 11.0642 7.60296L17.7385 11.1723C18.4804 11.569 18.4574 12.6061 17.6994 12.9332L9.48086 16.4799C8.72286 16.807 7.88287 16.1424 8.05454 15.3514L9.59883 8.23534Z" fill="url(#paint2_linear_2609_11651)"/>
<path d="M44.4012 9.60239C44.2631 8.96624 43.5324 8.65092 42.9358 8.97L36.2615 12.5393C35.5196 12.9361 35.5426 13.9732 36.3006 14.3003L44.5191 17.847C45.2771 18.1741 46.1171 17.5095 45.9455 16.7184L44.4012 9.60239Z" fill="url(#paint3_linear_2609_11651)"/>
<path d="M19.084 14.864C19.156 14.96 19.2 15.072 19.216 15.2C19.216 15.248 19.212 15.296 19.204 15.344C19.204 15.384 19.2 15.424 19.192 15.464C19.184 15.552 19.132 15.636 19.036 15.716C18.98 15.756 18.908 15.796 18.82 15.836C18.772 15.852 18.72 15.864 18.664 15.872C18.616 15.872 18.56 15.876 18.496 15.884C18.448 15.9 18.396 15.908 18.34 15.908C18.284 15.908 18.228 15.908 18.172 15.908H17.632L15.124 15.92V15.956L15.112 17.912C15.176 17.912 15.244 17.912 15.316 17.912C15.396 17.912 15.492 17.908 15.604 17.9C15.924 17.9 16.208 17.9 16.456 17.9C16.712 17.9 16.992 17.904 17.296 17.912H17.368C17.456 17.912 17.544 17.916 17.632 17.924C17.728 17.924 17.824 17.924 17.92 17.924C18.008 17.932 18.096 17.944 18.184 17.96C18.272 17.968 18.36 17.988 18.448 18.02C18.592 18.068 18.696 18.144 18.76 18.248C18.848 18.352 18.892 18.46 18.892 18.572C18.892 18.62 18.892 18.668 18.892 18.716C18.892 18.756 18.884 18.8 18.868 18.848C18.86 18.912 18.808 18.992 18.712 19.088C18.648 19.144 18.572 19.18 18.484 19.196C18.444 19.212 18.396 19.228 18.34 19.244C18.292 19.252 18.24 19.26 18.184 19.268C18.128 19.276 18.072 19.284 18.016 19.292C17.968 19.292 17.912 19.292 17.848 19.292H17.296L15.088 19.304L15.052 22.088V22.184C15.052 22.224 15.048 22.264 15.04 22.304C15.04 22.336 15.036 22.372 15.028 22.412C15.012 22.452 14.996 22.496 14.98 22.544C14.972 22.584 14.96 22.624 14.944 22.664C14.888 22.776 14.836 22.852 14.788 22.892C14.7 22.956 14.592 23 14.464 23.024C14.248 23.072 14.044 23.048 13.852 22.952C13.812 22.928 13.772 22.9 13.732 22.868C13.7 22.828 13.672 22.78 13.648 22.724C13.632 22.692 13.624 22.668 13.624 22.652L13.588 22.58C13.564 22.54 13.548 22.5 13.54 22.46C13.532 22.412 13.524 22.368 13.516 22.328C13.516 22.288 13.512 22.248 13.504 22.208C13.504 22.168 13.5 22.128 13.492 22.088C13.484 22.024 13.484 21.96 13.492 21.896V21.704L13.504 20.768L13.516 19.04C13.524 18.784 13.528 18.524 13.528 18.26C13.528 17.996 13.528 17.724 13.528 17.444C13.52 17.156 13.516 16.9 13.516 16.676C13.524 16.452 13.536 16.208 13.552 15.944V15.884C13.56 15.796 13.564 15.716 13.564 15.644C13.564 15.564 13.572 15.484 13.588 15.404C13.604 15.228 13.644 15.072 13.708 14.936C13.764 14.8 13.844 14.704 13.948 14.648C14.068 14.576 14.196 14.54 14.332 14.54C14.396 14.54 14.448 14.544 14.488 14.552V14.54C14.632 14.54 14.748 14.54 14.836 14.54C14.924 14.54 15.008 14.54 15.088 14.54C15.168 14.54 15.256 14.54 15.352 14.54C15.448 14.532 15.576 14.528 15.736 14.528C16.376 14.52 17.008 14.52 17.632 14.528H17.692C17.78 14.536 17.868 14.54 17.956 14.54C18.052 14.54 18.148 14.544 18.244 14.552C18.332 14.552 18.42 14.564 18.508 14.588C18.596 14.604 18.684 14.628 18.772 14.66C18.908 14.7 19.012 14.768 19.084 14.864ZM21.6513 15.944L21.6273 17.828H22.1073C22.4353 17.82 22.7273 17.816 22.9833 17.816C23.2393 17.816 23.5233 17.82 23.8353 17.828H23.8953C23.9913 17.828 24.0833 17.832 24.1713 17.84C24.2673 17.84 24.3593 17.84 24.4473 17.84C24.5433 17.848 24.6353 17.864 24.7233 17.888C24.8113 17.904 24.8993 17.924 24.9873 17.948C25.1233 17.996 25.2353 18.068 25.3233 18.164C25.4033 18.268 25.4433 18.384 25.4433 18.512C25.4433 18.552 25.4433 18.6 25.4433 18.656C25.4433 18.704 25.4353 18.748 25.4193 18.788C25.4033 18.876 25.3513 18.956 25.2633 19.028C25.2233 19.084 25.1473 19.124 25.0353 19.148C24.9313 19.18 24.8273 19.2 24.7233 19.208C24.6113 19.232 24.4993 19.244 24.3873 19.244H23.8233L21.6033 19.256L21.5793 21.608L23.9673 21.632H24.5313C24.5953 21.632 24.6553 21.632 24.7113 21.632C24.7673 21.632 24.8193 21.636 24.8673 21.644C24.9313 21.66 24.9873 21.672 25.0353 21.68C25.0913 21.68 25.1433 21.688 25.1913 21.704C25.2873 21.736 25.3673 21.78 25.4313 21.836C25.5113 21.916 25.5633 22 25.5873 22.088C25.5953 22.128 25.5993 22.172 25.5993 22.22C25.6073 22.26 25.6073 22.304 25.5993 22.352C25.5993 22.48 25.5593 22.596 25.4793 22.7C25.3833 22.812 25.2713 22.884 25.1433 22.916C24.9753 22.988 24.7913 23.024 24.5913 23.024C24.5033 23.032 24.4113 23.036 24.3153 23.036C24.2193 23.036 24.1273 23.04 24.0393 23.048H23.9673C23.3433 23.064 22.6953 23.064 22.0233 23.048C21.8633 23.048 21.7353 23.044 21.6393 23.036C21.5433 23.036 21.4553 23.036 21.3753 23.036C21.3033 23.036 21.2273 23.036 21.1473 23.036C21.0673 23.036 20.9633 23.036 20.8353 23.036C20.6513 23.052 20.4993 23.02 20.3793 22.94C20.2913 22.884 20.2233 22.808 20.1753 22.712C20.1513 22.688 20.1393 22.664 20.1393 22.64C20.1313 22.624 20.1233 22.612 20.1153 22.604C20.1073 22.596 20.0993 22.584 20.0913 22.568C20.0753 22.528 20.0633 22.488 20.0553 22.448C20.0473 22.4 20.0433 22.356 20.0433 22.316C20.0353 22.276 20.0273 22.236 20.0193 22.196C20.0193 22.156 20.0153 22.116 20.0073 22.076V21.884C20.0073 21.852 20.0073 21.82 20.0073 21.788C20.0153 21.756 20.0193 21.724 20.0193 21.692V20.756L20.0433 19.028V17.432C20.0433 17.144 20.0433 16.888 20.0433 16.664C20.0513 16.44 20.0593 16.196 20.0673 15.932V15.872C20.0753 15.784 20.0793 15.704 20.0793 15.632C20.0873 15.552 20.0913 15.472 20.0913 15.392C20.0993 15.232 20.1433 15.076 20.2233 14.924C20.2553 14.86 20.2873 14.804 20.3193 14.756C20.3593 14.708 20.4113 14.668 20.4753 14.636C20.5953 14.564 20.7193 14.528 20.8473 14.528C20.9113 14.528 20.9593 14.532 20.9913 14.54V14.528C21.1353 14.528 21.2513 14.528 21.3393 14.528C21.4273 14.528 21.5113 14.528 21.5913 14.528C21.6793 14.528 21.7713 14.528 21.8673 14.528C21.9633 14.52 22.0953 14.516 22.2633 14.516C22.5833 14.508 22.8873 14.504 23.1753 14.504C23.4633 14.504 23.7593 14.508 24.0633 14.516H24.1113C24.1993 14.524 24.2913 14.528 24.3873 14.528C24.4833 14.528 24.5753 14.532 24.6633 14.54C24.7513 14.54 24.8393 14.552 24.9273 14.576C25.0153 14.592 25.1033 14.616 25.1913 14.648C25.3273 14.688 25.4393 14.756 25.5273 14.852C25.5993 14.964 25.6353 15.076 25.6353 15.188C25.6353 15.236 25.6353 15.284 25.6353 15.332C25.6353 15.372 25.6273 15.412 25.6113 15.452C25.6033 15.532 25.5553 15.616 25.4673 15.704C25.4353 15.72 25.3993 15.74 25.3593 15.764C25.3273 15.788 25.2873 15.808 25.2393 15.824C25.1913 15.84 25.1393 15.852 25.0833 15.86C25.0353 15.86 24.9873 15.864 24.9393 15.872C24.8753 15.888 24.8153 15.896 24.7593 15.896C24.7113 15.896 24.6553 15.896 24.5913 15.896H24.0513L21.6513 15.908V15.944ZM28.2373 15.944L28.2133 17.828H28.6933C29.0213 17.82 29.3133 17.816 29.5693 17.816C29.8253 17.816 30.1093 17.82 30.4213 17.828H30.4813C30.5773 17.828 30.6693 17.832 30.7573 17.84C30.8533 17.84 30.9453 17.84 31.0333 17.84C31.1293 17.848 31.2213 17.864 31.3093 17.888C31.3973 17.904 31.4853 17.924 31.5733 17.948C31.7093 17.996 31.8213 18.068 31.9093 18.164C31.9893 18.268 32.0293 18.384 32.0293 18.512C32.0293 18.552 32.0293 18.6 32.0293 18.656C32.0293 18.704 32.0213 18.748 32.0053 18.788C31.9893 18.876 31.9373 18.956 31.8493 19.028C31.8093 19.084 31.7333 19.124 31.6213 19.148C31.5173 19.18 31.4133 19.2 31.3093 19.208C31.1973 19.232 31.0853 19.244 30.9733 19.244H30.4093L28.1893 19.256L28.1653 21.608L30.5533 21.632H31.1173C31.1813 21.632 31.2413 21.632 31.2973 21.632C31.3533 21.632 31.4053 21.636 31.4533 21.644C31.5173 21.66 31.5733 21.672 31.6213 21.68C31.6773 21.68 31.7293 21.688 31.7773 21.704C31.8733 21.736 31.9533 21.78 32.0173 21.836C32.0973 21.916 32.1493 22 32.1733 22.088C32.1813 22.128 32.1853 22.172 32.1853 22.22C32.1933 22.26 32.1933 22.304 32.1853 22.352C32.1853 22.48 32.1453 22.596 32.0653 22.7C31.9693 22.812 31.8573 22.884 31.7293 22.916C31.5613 22.988 31.3773 23.024 31.1773 23.024C31.0893 23.032 30.9973 23.036 30.9013 23.036C30.8053 23.036 30.7133 23.04 30.6253 23.048H30.5533C29.9293 23.064 29.2813 23.064 28.6093 23.048C28.4493 23.048 28.3213 23.044 28.2253 23.036C28.1293 23.036 28.0413 23.036 27.9613 23.036C27.8893 23.036 27.8133 23.036 27.7333 23.036C27.6533 23.036 27.5493 23.036 27.4213 23.036C27.2373 23.052 27.0853 23.02 26.9653 22.94C26.8773 22.884 26.8093 22.808 26.7613 22.712C26.7373 22.688 26.7253 22.664 26.7253 22.64C26.7173 22.624 26.7093 22.612 26.7013 22.604C26.6933 22.596 26.6853 22.584 26.6773 22.568C26.6613 22.528 26.6493 22.488 26.6413 22.448C26.6333 22.4 26.6293 22.356 26.6293 22.316C26.6213 22.276 26.6133 22.236 26.6053 22.196C26.6053 22.156 26.6013 22.116 26.5933 22.076V21.884C26.5933 21.852 26.5933 21.82 26.5933 21.788C26.6013 21.756 26.6053 21.724 26.6053 21.692V20.756L26.6293 19.028V17.432C26.6293 17.144 26.6293 16.888 26.6293 16.664C26.6373 16.44 26.6453 16.196 26.6533 15.932V15.872C26.6613 15.784 26.6653 15.704 26.6653 15.632C26.6733 15.552 26.6773 15.472 26.6773 15.392C26.6853 15.232 26.7293 15.076 26.8093 14.924C26.8413 14.86 26.8733 14.804 26.9053 14.756C26.9453 14.708 26.9973 14.668 27.0613 14.636C27.1813 14.564 27.3053 14.528 27.4333 14.528C27.4973 14.528 27.5453 14.532 27.5773 14.54V14.528C27.7213 14.528 27.8373 14.528 27.9253 14.528C28.0133 14.528 28.0973 14.528 28.1773 14.528C28.2653 14.528 28.3573 14.528 28.4533 14.528C28.5493 14.52 28.6813 14.516 28.8493 14.516C29.1693 14.508 29.4733 14.504 29.7613 14.504C30.0493 14.504 30.3453 14.508 30.6493 14.516H30.6973C30.7853 14.524 30.8773 14.528 30.9733 14.528C31.0693 14.528 31.1613 14.532 31.2493 14.54C31.3373 14.54 31.4253 14.552 31.5133 14.576C31.6013 14.592 31.6893 14.616 31.7773 14.648C31.9133 14.688 32.0253 14.756 32.1133 14.852C32.1853 14.964 32.2213 15.076 32.2213 15.188C32.2213 15.236 32.2213 15.284 32.2213 15.332C32.2213 15.372 32.2133 15.412 32.1973 15.452C32.1893 15.532 32.1413 15.616 32.0533 15.704C32.0213 15.72 31.9853 15.74 31.9453 15.764C31.9133 15.788 31.8733 15.808 31.8253 15.824C31.7773 15.84 31.7253 15.852 31.6693 15.86C31.6213 15.86 31.5733 15.864 31.5253 15.872C31.4613 15.888 31.4013 15.896 31.3453 15.896C31.2973 15.896 31.2413 15.896 31.1773 15.896H30.6373L28.2373 15.908V15.944ZM39.4912 18.176C39.5072 18.44 39.5032 18.712 39.4792 18.992C39.4632 19.272 39.4352 19.544 39.3952 19.808C39.3152 20.264 39.1672 20.708 38.9512 21.14C38.7352 21.572 38.4192 21.94 38.0032 22.244C37.5712 22.564 37.0792 22.784 36.5272 22.904C35.9752 23.016 35.4272 23.084 34.8832 23.108C34.6992 23.124 34.5112 23.128 34.3192 23.12C34.1352 23.12 33.9552 23.1 33.7792 23.06C33.6352 23.036 33.5272 22.992 33.4552 22.928C33.4152 22.904 33.3832 22.872 33.3592 22.832C33.3352 22.792 33.3152 22.752 33.2992 22.712C33.2752 22.672 33.2552 22.632 33.2392 22.592C33.2312 22.544 33.2192 22.496 33.2032 22.448C33.1952 22.408 33.1872 22.372 33.1792 22.34C33.1792 22.3 33.1792 22.264 33.1792 22.232V15.38C33.1792 15.324 33.1792 15.272 33.1792 15.224C33.1792 15.176 33.1872 15.128 33.2032 15.08C33.2192 14.968 33.2432 14.876 33.2752 14.804C33.3072 14.708 33.3512 14.64 33.4072 14.6C33.4552 14.56 33.5032 14.532 33.5512 14.516C33.5992 14.492 33.6432 14.472 33.6832 14.456C33.7312 14.44 33.7792 14.44 33.8272 14.456C33.8832 14.464 33.9432 14.452 34.0072 14.42L36.0112 14.468C36.5392 14.484 37.0112 14.608 37.4272 14.84C37.8432 15.064 38.1992 15.352 38.4952 15.704C38.7912 16.056 39.0232 16.452 39.1912 16.892C39.3592 17.324 39.4592 17.752 39.4912 18.176ZM37.2592 20.456C37.4112 20.216 37.5232 19.94 37.5952 19.628C37.6672 19.316 37.6992 19 37.6912 18.68C37.6832 18.352 37.6392 18.036 37.5592 17.732C37.4792 17.42 37.3672 17.144 37.2232 16.904C37.1112 16.728 36.9672 16.584 36.7912 16.472C36.6152 16.36 36.4192 16.276 36.2032 16.22C35.9872 16.156 35.7552 16.112 35.5072 16.088C35.2672 16.064 35.0312 16.052 34.7992 16.052C34.8072 16.284 34.8112 16.508 34.8112 16.724C34.8112 16.94 34.8112 17.168 34.8112 17.408C34.8032 17.696 34.7992 17.976 34.7992 18.248C34.7992 18.52 34.7992 18.784 34.7992 19.04V21.488C35.0472 21.48 35.2832 21.468 35.5072 21.452C35.7392 21.428 35.9592 21.38 36.1672 21.308C36.3832 21.236 36.5792 21.136 36.7552 21.008C36.9392 20.872 37.1072 20.688 37.2592 20.456Z" fill="white"/>
<path d="M17.5478 33.572C17.7798 33.724 17.9758 33.904 18.1358 34.112C18.3038 34.312 18.4358 34.56 18.5318 34.856C18.6358 35.184 18.6878 35.516 18.6878 35.852C18.6958 36.18 18.6358 36.488 18.5078 36.776C18.3878 37.056 18.1918 37.304 17.9198 37.52C17.6558 37.728 17.3078 37.876 16.8758 37.964C16.6438 38.02 16.3718 38.064 16.0598 38.096C15.7478 38.128 15.4678 38.144 15.2198 38.144C14.9078 38.152 14.5838 38.152 14.2478 38.144C13.9198 38.144 13.5998 38.112 13.2878 38.048C13.1518 38.008 13.0518 37.94 12.9878 37.844C12.9318 37.74 12.8918 37.624 12.8678 37.496C12.8358 37.424 12.8198 37.352 12.8198 37.28V30.464C12.8198 30.24 12.8638 30.068 12.9518 29.948C13.0478 29.82 13.1718 29.728 13.3238 29.672C13.4758 29.608 13.6478 29.572 13.8398 29.564C14.0318 29.548 14.2318 29.54 14.4398 29.54C14.5998 29.54 14.7598 29.54 14.9198 29.54C15.0878 29.532 15.2558 29.532 15.4238 29.54C15.6878 29.548 15.9598 29.572 16.2398 29.612C16.5278 29.644 16.7998 29.708 17.0558 29.804C17.1758 29.844 17.3038 29.9 17.4398 29.972C17.5758 30.036 17.6838 30.116 17.7638 30.212C18.0198 30.444 18.2078 30.716 18.3278 31.028C18.4558 31.332 18.5118 31.644 18.4958 31.964C18.4798 32.276 18.3918 32.576 18.2318 32.864C18.0798 33.152 17.8518 33.388 17.5478 33.572ZM15.4478 36.752C15.6958 36.736 15.9478 36.708 16.2038 36.668C16.4598 36.628 16.6358 36.552 16.7318 36.44C16.8358 36.312 16.9078 36.164 16.9478 35.996C16.9958 35.82 17.0078 35.644 16.9838 35.468C16.9678 35.284 16.9158 35.112 16.8278 34.952C16.7478 34.784 16.6398 34.652 16.5038 34.556C16.3198 34.412 16.1078 34.32 15.8678 34.28C15.6278 34.232 15.3918 34.208 15.1598 34.208C15.0478 34.208 14.9438 34.212 14.8478 34.22C14.7598 34.22 14.6798 34.232 14.6078 34.256C14.5438 34.272 14.4958 34.308 14.4638 34.364C14.4318 34.42 14.4158 34.504 14.4158 34.616C14.4318 34.824 14.4318 35.032 14.4158 35.24C14.3998 35.448 14.3918 35.648 14.3918 35.84C14.3918 35.952 14.3878 36.076 14.3798 36.212C14.3798 36.34 14.4238 36.448 14.5118 36.536C14.5998 36.624 14.7278 36.684 14.8958 36.716C15.0638 36.748 15.2478 36.76 15.4478 36.752ZM15.6878 30.992C15.4398 30.984 15.2318 30.98 15.0638 30.98C14.9038 30.972 14.7758 30.984 14.6798 31.016C14.5918 31.04 14.5278 31.1 14.4878 31.196C14.4558 31.284 14.4438 31.42 14.4518 31.604C14.4518 31.756 14.4478 31.908 14.4398 32.06C14.4398 32.204 14.4398 32.348 14.4398 32.492C14.4398 32.652 14.4918 32.772 14.5958 32.852C14.6998 32.924 14.8278 32.968 14.9798 32.984C15.1398 33 15.3038 33 15.4718 32.984C15.6478 32.968 15.7998 32.948 15.9278 32.924C16.2158 32.876 16.4358 32.78 16.5878 32.636C16.7478 32.484 16.8398 32.264 16.8638 31.976C16.8958 31.616 16.7998 31.368 16.5758 31.232C16.3598 31.088 16.0638 31.008 15.6878 30.992ZM26.9035 37.184C26.9115 37.232 26.9155 37.28 26.9155 37.328C26.9235 37.368 26.9275 37.416 26.9275 37.472C26.9275 37.568 26.8995 37.656 26.8435 37.736C26.8195 37.776 26.7875 37.816 26.7475 37.856C26.7075 37.888 26.6595 37.916 26.6035 37.94C26.4035 38.052 26.1915 38.092 25.9675 38.06C25.8555 38.028 25.7555 37.976 25.6675 37.904C25.6515 37.888 25.6395 37.88 25.6315 37.88C25.6235 37.872 25.6155 37.86 25.6075 37.844C25.5995 37.836 25.5915 37.828 25.5835 37.82C25.5755 37.804 25.5635 37.792 25.5475 37.784C25.5075 37.744 25.4755 37.708 25.4515 37.676C25.4275 37.636 25.4035 37.596 25.3795 37.556C25.3635 37.516 25.3435 37.48 25.3195 37.448C25.3035 37.408 25.2835 37.368 25.2595 37.328C25.2435 37.296 25.2275 37.268 25.2115 37.244C25.1955 37.212 25.1835 37.18 25.1755 37.148C25.1435 37.076 25.1235 37.012 25.1155 36.956L24.8635 36.368C24.3115 36.368 23.7595 36.372 23.2075 36.38C22.6635 36.38 22.1155 36.376 21.5635 36.368L21.3115 36.956C21.2955 36.988 21.2835 37.02 21.2755 37.052C21.2755 37.084 21.2675 37.116 21.2515 37.148C21.2355 37.18 21.2195 37.212 21.2035 37.244C21.1955 37.268 21.1835 37.296 21.1675 37.328C21.1435 37.368 21.1195 37.408 21.0955 37.448C21.0795 37.48 21.0595 37.516 21.0355 37.556C21.0195 37.596 20.9995 37.636 20.9755 37.676C20.9515 37.708 20.9195 37.744 20.8795 37.784C20.8635 37.792 20.8515 37.804 20.8435 37.82C20.8355 37.828 20.8275 37.836 20.8195 37.844C20.8115 37.86 20.8035 37.872 20.7955 37.88C20.7875 37.88 20.7755 37.888 20.7595 37.904C20.6715 37.976 20.5715 38.028 20.4595 38.06C20.2355 38.092 20.0235 38.052 19.8235 37.94C19.7675 37.916 19.7195 37.888 19.6795 37.856C19.6395 37.816 19.6075 37.776 19.5835 37.736C19.5275 37.656 19.4995 37.568 19.4995 37.472C19.4995 37.416 19.4995 37.368 19.4995 37.328C19.5075 37.28 19.5155 37.232 19.5235 37.184C19.5395 37.112 19.5595 37.04 19.5835 36.968C19.6075 36.896 19.6195 36.86 19.6195 36.86L22.1155 30.716L22.1875 30.524C22.2035 30.476 22.2235 30.432 22.2475 30.392C22.2715 30.352 22.2915 30.304 22.3075 30.248C22.3475 30.144 22.3915 30.052 22.4395 29.972C22.4635 29.924 22.4915 29.88 22.5235 29.84C22.5555 29.8 22.5875 29.76 22.6195 29.72C22.6675 29.656 22.7355 29.604 22.8235 29.564C22.9355 29.524 23.0635 29.504 23.2075 29.504C23.3595 29.504 23.4915 29.524 23.6035 29.564C23.6915 29.604 23.7595 29.656 23.8075 29.72C23.8635 29.792 23.9235 29.876 23.9875 29.972C24.0355 30.052 24.0795 30.144 24.1195 30.248C24.1355 30.304 24.1555 30.352 24.1795 30.392C24.2035 30.432 24.2235 30.476 24.2395 30.524L24.3115 30.716L26.8075 36.86C26.8075 36.86 26.8195 36.896 26.8435 36.968C26.8675 37.04 26.8875 37.112 26.9035 37.184ZM24.0595 34.244C23.9555 34.012 23.8475 33.772 23.7355 33.524C23.6315 33.276 23.5195 33.024 23.3995 32.768C23.3675 32.696 23.3355 32.624 23.3035 32.552C23.2715 32.472 23.2395 32.396 23.2075 32.324C23.1835 32.396 23.1555 32.472 23.1235 32.552C23.0915 32.624 23.0595 32.696 23.0275 32.768C22.9075 33.024 22.7915 33.276 22.6795 33.524C22.5755 33.772 22.4715 34.012 22.3675 34.244L22.1515 34.772H24.2755L24.0595 34.244ZM34.2622 35.984C34.3662 36.216 34.3702 36.444 34.2742 36.668C34.1782 36.884 34.0262 37.084 33.8182 37.268C33.6102 37.452 33.3702 37.612 33.0982 37.748C32.8342 37.884 32.5822 37.98 32.3422 38.036C32.0782 38.092 31.7982 38.116 31.5022 38.108C31.2142 38.108 30.9222 38.072 30.6262 38C30.3382 37.936 30.0542 37.84 29.7742 37.712C29.5022 37.576 29.2502 37.412 29.0182 37.22C28.7382 36.988 28.5182 36.712 28.3582 36.392C28.2062 36.064 28.0942 35.716 28.0222 35.348C27.9502 34.98 27.9102 34.612 27.9022 34.244C27.9022 33.868 27.9142 33.516 27.9382 33.188C27.9622 32.892 28.0222 32.584 28.1182 32.264C28.2142 31.944 28.3462 31.632 28.5142 31.328C28.6902 31.016 28.8982 30.728 29.1382 30.464C29.3862 30.2 29.6742 29.976 30.0022 29.792C30.2502 29.648 30.5262 29.552 30.8302 29.504C31.1422 29.448 31.4542 29.436 31.7662 29.468C32.0862 29.492 32.3862 29.56 32.6662 29.672C32.9542 29.776 33.1982 29.92 33.3982 30.104C33.5262 30.216 33.6582 30.372 33.7942 30.572C33.9382 30.772 34.0422 30.976 34.1062 31.184C34.1702 31.392 34.1702 31.588 34.1062 31.772C34.0502 31.948 33.8902 32.068 33.6262 32.132C33.5142 32.164 33.4142 32.172 33.3262 32.156C33.2382 32.132 33.1582 32.096 33.0862 32.048C33.0142 31.992 32.9462 31.928 32.8822 31.856C32.8182 31.784 32.7582 31.712 32.7022 31.64C32.5102 31.408 32.2862 31.252 32.0302 31.172C31.7742 31.084 31.5182 31.064 31.2622 31.112C31.0142 31.152 30.7782 31.256 30.5542 31.424C30.3382 31.584 30.1702 31.792 30.0502 32.048C29.9222 32.32 29.8182 32.62 29.7382 32.948C29.6662 33.268 29.6262 33.596 29.6182 33.932C29.6102 34.26 29.6382 34.58 29.7022 34.892C29.7742 35.204 29.8942 35.48 30.0622 35.72C30.1902 35.912 30.3462 36.068 30.5302 36.188C30.7222 36.308 30.9262 36.392 31.1422 36.44C31.3582 36.488 31.5742 36.496 31.7902 36.464C32.0142 36.432 32.2302 36.36 32.4382 36.248C32.5022 36.216 32.5702 36.172 32.6422 36.116C32.7222 36.052 32.8022 35.988 32.8822 35.924C32.9622 35.86 33.0422 35.8 33.1222 35.744C33.2102 35.688 33.3022 35.648 33.3982 35.624C33.5422 35.576 33.6982 35.58 33.8662 35.636C34.0422 35.692 34.1742 35.808 34.2622 35.984ZM41.1161 37.136C41.1801 37.256 41.1841 37.376 41.1281 37.496C41.0881 37.624 41.0201 37.72 40.9241 37.784C40.8761 37.824 40.8321 37.86 40.7921 37.892C40.7521 37.916 40.7081 37.936 40.6601 37.952C40.5721 38 40.4681 38.016 40.3481 38C40.3001 38 40.2561 37.992 40.2161 37.976C40.1761 37.96 40.1361 37.94 40.0961 37.916C40.0561 37.892 40.0121 37.868 39.9641 37.844C39.9241 37.812 39.8841 37.78 39.8441 37.748C39.7961 37.708 39.7521 37.672 39.7121 37.64C39.6721 37.608 39.6361 37.572 39.6041 37.532C39.5641 37.492 39.5281 37.452 39.4961 37.412C39.4641 37.372 39.4321 37.336 39.4001 37.304L39.2561 37.148L36.9521 34.736L36.9881 37.148V37.256C36.9881 37.288 36.9841 37.324 36.9761 37.364C36.9681 37.396 36.9601 37.432 36.9521 37.472C36.9281 37.576 36.9001 37.668 36.8681 37.748C36.8521 37.796 36.8281 37.836 36.7961 37.868C36.7721 37.9 36.7441 37.932 36.7121 37.964C36.6241 38.044 36.5201 38.088 36.4001 38.096C36.2801 38.136 36.1681 38.148 36.0641 38.132C35.9681 38.124 35.8681 38.096 35.7641 38.048C35.6841 38 35.6121 37.92 35.5481 37.808C35.5321 37.776 35.5201 37.756 35.5121 37.748C35.5121 37.74 35.5041 37.712 35.4881 37.664C35.4401 37.584 35.4161 37.504 35.4161 37.424C35.4081 37.376 35.4001 37.332 35.3921 37.292C35.3921 37.252 35.3881 37.208 35.3801 37.16C35.3721 37.128 35.3681 37.096 35.3681 37.064C35.3681 37.032 35.3681 37 35.3681 36.968C35.3761 36.928 35.3801 36.896 35.3801 36.872C35.3801 36.84 35.3801 36.804 35.3801 36.764L35.3681 35.816L35.3561 34.052C35.3561 33.54 35.3441 32.988 35.3201 32.396C35.3121 32.108 35.3081 31.852 35.3081 31.628C35.3081 31.404 35.3121 31.152 35.3201 30.872V30.824C35.3361 30.736 35.3441 30.652 35.3441 30.572C35.3441 30.484 35.3481 30.4 35.3561 30.32C35.3561 30.16 35.3921 30 35.4641 29.84C35.5121 29.72 35.5961 29.624 35.7161 29.552C35.7801 29.512 35.8401 29.488 35.8961 29.48C35.9601 29.464 36.0281 29.448 36.1001 29.432C36.1561 29.432 36.2081 29.436 36.2561 29.444C36.3121 29.452 36.3641 29.46 36.4121 29.468C36.5161 29.484 36.6121 29.528 36.7001 29.6C36.7241 29.624 36.7441 29.652 36.7601 29.684C36.7841 29.716 36.8041 29.756 36.8201 29.804C36.8601 29.868 36.8881 29.96 36.9041 30.08C36.9121 30.128 36.9161 30.176 36.9161 30.224C36.9241 30.272 36.9281 30.324 36.9281 30.38V30.872L36.9401 32.336C37.0681 32.224 37.1921 32.108 37.3121 31.988C37.4401 31.868 37.5641 31.74 37.6841 31.604C37.9001 31.38 38.1121 31.164 38.3201 30.956C38.5361 30.74 38.7521 30.528 38.9681 30.32L39.0041 30.284C39.0681 30.22 39.1321 30.16 39.1961 30.104C39.2681 30.04 39.3361 29.98 39.4001 29.924C39.5201 29.788 39.6681 29.692 39.8441 29.636C39.9561 29.564 40.0881 29.536 40.2401 29.552C40.3121 29.56 40.3761 29.576 40.4321 29.6C40.4961 29.624 40.5561 29.656 40.6121 29.696C40.6521 29.736 40.6921 29.772 40.7321 29.804C40.7721 29.828 40.8041 29.86 40.8281 29.9C40.8921 29.956 40.9321 30.04 40.9481 30.152C40.9481 30.24 40.9321 30.32 40.9001 30.392C40.8761 30.432 40.8521 30.472 40.8281 30.512C40.8041 30.552 40.7761 30.592 40.7441 30.632C40.7041 30.68 40.6681 30.724 40.6361 30.764C40.6041 30.804 40.5681 30.844 40.5281 30.884C40.4961 30.924 40.4601 30.96 40.4201 30.992C40.3881 31.024 40.3561 31.06 40.3241 31.1L40.1681 31.256L37.9241 33.548C38.0441 33.668 38.1681 33.796 38.2961 33.932C38.4321 34.06 38.5601 34.188 38.6801 34.316C38.8001 34.436 38.9121 34.552 39.0161 34.664C39.1201 34.768 39.2081 34.856 39.2801 34.928C39.4961 35.152 39.7041 35.376 39.9041 35.6C40.1041 35.816 40.3001 36.036 40.4921 36.26L40.5281 36.296C40.5921 36.36 40.6521 36.428 40.7081 36.5C40.7641 36.564 40.8161 36.628 40.8641 36.692C40.9841 36.828 41.0681 36.976 41.1161 37.136Z" fill="white"/>
<defs>
<linearGradient id="paint0_linear_2609_11651" x1="39.5" y1="41" x2="39.5" y2="50" gradientUnits="userSpaceOnUse">
<stop offset="0.44" stop-color="#34A853"/>
<stop offset="1" stop-color="#1A9A64"/>
</linearGradient>
<linearGradient id="paint1_linear_2609_11651" x1="26.5566" y1="6.27413" x2="26.5566" y2="48" gradientUnits="userSpaceOnUse">
<stop offset="0.44" stop-color="#34A853"/>
<stop offset="1" stop-color="#1A9A64"/>
</linearGradient>
<linearGradient id="paint2_linear_2609_11651" x1="9.87418" y1="6.96654" x2="14.4064" y2="17.4689" gradientUnits="userSpaceOnUse">
<stop offset="0.44" stop-color="#34A853"/>
<stop offset="1" stop-color="#1A9A64"/>
</linearGradient>
<linearGradient id="paint3_linear_2609_11651" x1="44.1258" y1="8.33359" x2="39.5936" y2="18.8359" gradientUnits="userSpaceOnUse">
<stop offset="0.44" stop-color="#34A853"/>
<stop offset="1" stop-color="#1A9A64"/>
</linearGradient>
</defs>
</svg>
