<?xml version="1.0" encoding="UTF-8"?>
<svg id="Layer_2" data-name="Layer 2" xmlns="http://www.w3.org/2000/svg" viewBox="0 0 272.29 210.1">
  <defs>
    <style>
      .cls-1 {
        stroke-width: 9.86px;
      }

      .cls-1, .cls-2 {
        fill: none;
        stroke: #404dcf;
        stroke-linecap: round;
        stroke-miterlimit: 10;
      }

      .cls-2 {
        stroke-width: 10px;
      }

      .cls-3 {
        fill: #404dcf;
      }

      .cls-3, .cls-4 {
        stroke-width: 0px;
      }

      .cls-4 {
        fill: #fff;
      }
    </style>
  </defs>
  <g id="Layer_1-2" data-name="Layer 1">
    <g>
      <g>
        <path class="cls-4" d="M51.76,5h148.82c14.15,0,25.64,11.49,25.64,25.64v148.82c0,14.15-11.49,25.64-25.64,25.64H51.76c-14.15,0-25.64-11.49-25.64-25.64V30.64c0-14.15,11.49-25.64,25.64-25.64Z"/>
        <path class="cls-3" d="M200.58,10c11.38,0,20.64,9.26,20.64,20.64v148.82c0,11.38-9.26,20.64-20.64,20.64H51.76c-11.38,0-20.64-9.26-20.64-20.64V30.64c0-11.38,9.26-20.64,20.64-20.64h148.82M200.58,0H51.76C34.84,0,21.12,13.72,21.12,30.64v148.82c0,16.92,13.72,30.64,30.64,30.64h148.82c16.92,0,30.64-13.72,30.64-30.64V30.64C231.22,13.72,217.5,0,200.58,0h0Z"/>
      </g>
      <g>
        <rect class="cls-3" x="20.66" y="0" width="61.21" height="210.1" rx="30.6" ry="30.6"/>
        <path class="cls-3" d="M37.94,165.1l.45,20.45c.12,5.32-6.03,8.35-10.18,5.03l-9.91-8.47-15.6-15.34c-3.52-3.59-2.89-9.51,1.32-12.27l10.98-9.84,11.73-12.25c4-3.51,10.64,6.92,10.76,12.24l.45,20.45Z"/>
        <path class="cls-3" d="M37.53,40.63l.45-20.45c.12-5.32-6.03-8.35-10.18-5.03l-9.91,8.47-15.6,15.34c-3.52,3.59-2.89,9.51,1.32,12.27l10.98,9.84,11.73,12.25c4,3.51,10.64-6.92,10.76-12.24l.45-20.45Z"/>
      </g>
      <path class="cls-3" d="M252,133.88l-9.49-11.47c-1.99-2.41-1.33-5.5,1.19-5.55l12.02-.28,12.02-.28c2.52-.06,5.02,2.95,4.49,5.42l-2.52,11.75-2.52,11.75c-.53,2.47-3.69,2.54-5.68.13l-9.49-11.47Z"/>
      <g>
        <path class="cls-3" d="M131.32,72.91v-13.59c0-2.86,2.9-4.64,5.21-3.21l11.03,6.8,9.15,5.64c3.26,2.01,3.26,6.74,0,8.74l-9.15,5.64-11.03,6.8c-2.32,1.43-5.21-.36-5.21-3.21v-13.59Z"/>
        <path class="cls-2" d="M142.42,73.6h12.31c11.45.48,15.58,8.67,14.59,15.94-.7,5.15-2.92,7.79-8.18,10.39"/>
        <path class="cls-2" d="M142.42,72.61h12.31c11.45-.48,15.58-8.67,14.59-15.94-.7-5.15-2.92-7.79-8.18-10.39"/>
      </g>
      <path class="cls-1" d="M266.01,122.9c-7.04,9.79-20.95,17.88-33.22,18.56s-16.48-1.02-28.31-1.85-25.39,2.57-34.08,11.02c-8.51,8.27-11.25,20.7-11.24,32.4,0,10.33,2.75,15.58,9.28,21.87"/>
    </g>
  </g>
</svg>