<svg width="46" height="46" viewBox="0 0 46 46" fill="none" xmlns="http://www.w3.org/2000/svg">
<circle cx="23" cy="23" r="22.5" fill="#F7CA3C"/>
<circle cx="23" cy="23" r="22.5" fill="url(#paint0_linear_1250_2936)" fill-opacity="0.36"/>
<circle cx="23" cy="23" r="22.5" stroke="#3641A3"/>
<path d="M30.75 19C30.75 21.0554 29.9335 23.0267 28.4801 24.4801C27.0267 25.9335 25.0554 26.75 23 26.75C20.9446 26.75 18.9733 25.9335 17.5199 24.4801C16.0665 23.0267 15.25 21.0554 15.25 19C15.25 16.9446 16.0665 14.9733 17.5199 13.5199C18.9733 12.0665 20.9446 11.25 23 11.25C25.0554 11.25 27.0267 12.0665 28.4801 13.5199C29.9335 14.9733 30.75 16.9446 30.75 19Z" fill="white" stroke="#D0B04B" stroke-width="0.5"/>
<path d="M16 18C18.5 17.8333 23.6 16.4 24 12M22.5 15C23 16 27 18.5 30 18" stroke="#D0B04B" stroke-width="0.5"/>
<path fill-rule="evenodd" clip-rule="evenodd" d="M22.286 40.486C12.9524 40.1115 5.5 32.4255 5.5 23C5.5 13.3348 13.3348 5.5 23 5.5C32.6653 5.5 40.5 13.3348 40.5 23C40.5 32.6653 32.6653 40.5 23 40.5C22.9201 40.5005 22.8402 40.5005 22.7603 40.5C22.6019 40.5 22.4435 40.4948 22.286 40.486ZM11.7703 34.0425C11.6394 33.6668 11.5949 33.2664 11.6399 32.871C11.685 32.4757 11.8186 32.0956 12.0306 31.759C12.2427 31.4223 12.5279 31.1378 12.865 30.9264C13.2021 30.7151 13.5825 30.5824 13.9779 30.5381C20.7994 29.783 25.2426 29.8513 32.0309 30.5539C32.4268 30.5951 32.8081 30.7262 33.1458 30.937C33.4834 31.1479 33.7685 31.433 33.9793 31.7707C34.1901 32.1084 34.321 32.4898 34.3621 32.8857C34.4033 33.2817 34.3535 33.6818 34.2166 34.0556C37.1259 31.112 38.7552 27.1387 38.75 23C38.75 14.3016 31.6984 7.25 23 7.25C14.3016 7.25 7.25 14.3016 7.25 23C7.25 27.3015 8.97463 31.2005 11.7703 34.0425Z" fill="#FBE59E"/>
<path d="M20 21V22" stroke="#894925" stroke-width="2" stroke-linecap="round"/>
<path d="M26 21V22" stroke="#894925" stroke-width="2" stroke-linecap="round"/>
<g clip-path="url(#clip0_1250_2936)">
<path d="M23 28.0155C21.6456 27.0459 19.6821 26.9017 17.8946 27.0505C15.8129 27.2257 13.7119 27.8197 12.4029 28.3154C12.2828 28.3609 12.1809 28.4342 12.1095 28.5265C12.038 28.6189 12 28.7264 12 28.8362V41.4278C12 41.5236 12.0289 41.6178 12.084 41.7019C12.1391 41.7859 12.2187 41.8571 12.3154 41.9089C12.4122 41.9608 12.523 41.9916 12.6377 41.9985C12.7524 42.0054 12.8674 41.9883 12.9721 41.9486C14.1849 41.4908 16.1388 40.9402 18.0321 40.7811C19.9695 40.6185 21.5934 40.8807 22.4638 41.785C22.5282 41.8518 22.6098 41.9058 22.7026 41.9428C22.7954 41.9799 22.8971 41.9991 23 41.9991C23.1029 41.9991 23.2046 41.9799 23.2974 41.9428C23.3902 41.9058 23.4718 41.8518 23.5363 41.785C24.4066 40.8807 26.0305 40.6185 27.9665 40.7811C29.8613 40.9402 31.8165 41.4908 33.0279 41.9486C33.1326 41.9883 33.2476 42.0054 33.3623 41.9985C33.477 41.9916 33.5878 41.9608 33.6846 41.9089C33.7813 41.8571 33.8609 41.7859 33.916 41.7019C33.9711 41.6178 34 41.5236 34 41.4278V28.8362C34 28.7264 33.962 28.6189 33.8905 28.5265C33.8191 28.4342 33.7172 28.3609 33.5971 28.3154C32.2881 27.8197 30.1871 27.2257 28.1054 27.0505C26.3179 26.9006 24.3544 27.0459 23 28.0155Z" fill="white" stroke="#D0B04B"/>
<path d="M23 30.5V39" stroke="#D0B04B" stroke-width="0.5"/>
</g>
<defs>
<linearGradient id="paint0_linear_1250_2936" x1="23" y1="0" x2="23" y2="46" gradientUnits="userSpaceOnUse">
<stop stop-color="white"/>
<stop offset="0.405" stop-color="#F7CA3C"/>
<stop offset="1" stop-color="#D0B04B"/>
</linearGradient>
<clipPath id="clip0_1250_2936">
<rect width="24" height="17" fill="white" transform="translate(11 25)"/>
</clipPath>
</defs>
</svg>
